/* XPM */
static char *collectible[] = {
/* columns rows colors chars-per-pixel */
"64 64 185 2 ",
"   c None",
".  c #030405",
"X  c #0A0405",
"o  c #070807",
"O  c #050608",
"+  c #070808",
"@  c #0B0B0A",
"#  c #110605",
"$  c #120906",
"%  c #1B0906",
"&  c #100F0E",
"*  c #1A0705",
"=  c #10100F",
"-  c #141311",
";  c #191714",
":  c #1F1E1A",
">  c #1A1916",
",  c #220C06",
"<  c #221509",
"1  c #3F1706",
"2  c #381508",
"3  c #201F1D",
"4  c #23221F",
"5  c #272522",
"6  c #2C2B26",
"7  c #312F29",
"8  c #3C3A33",
"9  c #421906",
"0  c #4D1C03",
"q  c #461A08",
"w  c #441F14",
"e  c #4E250B",
"r  c #532405",
"t  c #582407",
"y  c #5D2B05",
"u  c #58270A",
"i  c #6A2605",
"p  c #642F07",
"a  c #722F00",
"s  c #782B07",
"d  c #763607",
"f  c #7B3C00",
"g  c #743C06",
"h  c #7E4000",
"j  c #764019",
"k  c #7A4219",
"l  c #4A473F",
"z  c #4B483F",
"x  c #47443B",
"c  c #4C4A41",
"v  c #504E45",
"b  c #6C6759",
"n  c #862F08",
"m  c #833205",
"M  c #9A3B07",
"N  c #A53B07",
"B  c #834109",
"V  c #974306",
"C  c #9C4907",
"Z  c #964608",
"A  c #AC4306",
"S  c #A74806",
"D  c #AB4B05",
"F  c #A74908",
"G  c #A34305",
"H  c #B44704",
"J  c #B64B05",
"K  c #BA4C05",
"L  c #AD5607",
"P  c #B35406",
"I  c #BC5406",
"U  c #B05309",
"Y  c #B75D0A",
"T  c #99630C",
"R  c #AC630D",
"E  c #B76103",
"W  c #CB5A03",
"Q  c #C25704",
"!  c #C66105",
"~  c #CB6305",
"^  c #C76B06",
"/  c #CA6A06",
"(  c #CD640A",
")  c #D26B04",
"_  c #D56A05",
"`  c #CC7406",
"'  c #DC7605",
"]  c #D57E00",
"[  c #DF7E05",
"{  c #D67204",
"}  c #E17504",
"|  c #E37C04",
" . c #E97A04",
".. c #DF8708",
"X. c #D78C0A",
"o. c #D79213",
"O. c #DD9B19",
"+. c #E48306",
"@. c #EA8305",
"#. c #E68B07",
"$. c #EA8906",
"%. c #E78708",
"&. c #E58B0C",
"*. c #E88808",
"=. c #F18700",
"-. c #F28B05",
";. c #F08908",
":. c #ED9206",
">. c #E7900C",
",. c #EB9409",
"<. c #ED9A0B",
"1. c #F39506",
"2. c #F49906",
"3. c #F29F08",
"4. c #FC9C02",
"5. c #E38C12",
"6. c #F28F13",
"7. c #ED9F11",
"8. c #E99919",
"9. c #F5A607",
"0. c #F8A706",
"q. c #F4A309",
"w. c #F5AA0C",
"e. c #FAA90A",
"r. c #EEA719",
"t. c #F3AA13",
"y. c #F5AE1A",
"u. c #F0A31B",
"i. c #F6B71B",
"p. c #FCB71A",
"a. c #FBB214",
"s. c #D49327",
"d. c #E49B27",
"f. c #D9A034",
"g. c #F2AC23",
"h. c #FAAD29",
"j. c #F5B827",
"k. c #FDBE22",
"l. c #F6B92B",
"z. c #F5BB34",
"x. c #F7C136",
"c. c #FAC433",
"v. c #FBCA35",
"b. c #FAC538",
"n. c #FBCB3C",
"m. c #E8AF4A",
"M. c #E8B154",
"N. c #E3B964",
"B. c #F9BF67",
"V. c #FBCE43",
"C. c #F8C849",
"Z. c #FED143",
"A. c #FED44B",
"S. c #F7C953",
"D. c #F8CC54",
"F. c #F9C75A",
"G. c #FFC95D",
"H. c #FCD353",
"J. c #FFD855",
"K. c #F7D25A",
"L. c #FAD25A",
"P. c #FFCB6E",
"I. c #F9CA63",
"U. c #FFD367",
"Y. c #FBD46A",
"T. c #FDDB6B",
"R. c #FFD275",
"E. c #FBDB74",
"W. c #FBDD7C",
"Q. c #FFD27B",
"!. c #FADD80",
"~. c #FBE084",
"^. c #FCE48C",
"/. c #FFEA8E",
"(. c #FCE594",
"). c #FCE79B",
"_. c #FBE99C",
"`. c #FAE896",
"'. c #FAE7A2",
"]. c #FDEBA5",
"[. c #FDEDAA",
"{. c #FCEDAE",
"}. c #FBEEB3",
"|. c #FDEFB2",
" X c #FDF3B9",
/* pixels */
"                                                                                                                                ",
"                                                                                                                                ",
"                                                                                                                                ",
"                                                                                                                                ",
"                                                                                                                                ",
"                                                                                                                                ",
"                                                                                                                                ",
"                                                                                                                                ",
"                                                                                                                                ",
"                                                                                                                                ",
"                                                                                                                                ",
"                                                                                                                                ",
"                                                                                                                                ",
"                          . . . . . . . . . . . . . . . . . . . . . . . . . . . . . . . . . . . . . .                           ",
"                          . . . . . . . + + . . + ; . . . . . X X . . . . . .   . . . - . . . + + . .                           ",
"                          . . . . . .   + + . . . + . . . . . j k . . . . . . 8 + . . + . . . . . . .                           ",
"                          . . . . . + 3 . . . . . . . . . . 9 N.M.0 + . . . . 6 + . . . . . . . . . .                           ",
"                          . . + . . + - . . . . . . . . . w f./.Y.] < . . . .   . . . . . . . . . . .                           ",
"                          . . - . . . . . . . . . . . . 9 s.T.{.E.e.d . . + ; . . . . . = . . . . . .                           ",
"                          . . . . . . . . . + = . . . . T A.].(.V.y.' u . . . . . . . . = . . . . . .                           ",
"                          . . . . . . . + & . . . . . e O.^. X^.n.y.4.P * . . . . . . . . . . - + . .                           ",
"                          . . . . - .   c c   . . . # R J.'.{.(.n.b.3.@.y . . . . . . . . . . . . . .                           ",
"                          . . . . . . . + + . . . X B r.!.|.{.^.V.n.t.1.P , . . . . . . . . . . . . +                           ",
"                          . + = . . . . . . . . . p <.T.{.{.).S.E.n.z.| | V . . . . + . .   . . . . .                           ",
"                          . . . . . . . . . . . % E U.|.].{.).S.E.v.z.#.:._ 9 . . . . . 5 x . . . . .                           ",
"                          . . . . + . . . . . . g ( m.].{.{.(.C.].H.t.| ' D P $ . . .   8 b   . . . .                           ",
"                          . + . . + . . + + + . h B.d.1.F. XD.z.|.H.q.I S ~ K # . + . . . . . . . . .                           ",
"                          . . . . . . . . + + . f R.K.u.q.I.D.j.H.o.U / 2.@.H $ . . . . . . . . + . .                           ",
"                          . . . . - . . . . . . f P.H.V.b.l.g.k.o.F ` 0.:.| J $ . = = . . . . . . . .                           ",
"                          . . . . + . . . . . . f Q.`.b.E.L.n.8.Q $.e.q.+.} J # . + + . . . . . . . .                           ",
"                          . . . . .   . . . + . h G.).b.~.L.A.5.) 0.t.g.| | J # . . . . . . + . . - .                           ",
"                          . + . . . l 5   . . . a h.^.n.L.E.H.5.) 9.t.g.| | J $ + . . . . . . . . + .                           ",
"                          . . + + . 4 - . . . . i 6.H.n.v.~.J.5.) w.g.&.| ,.J X . . . . . . . - . . .                           ",
"                          . . + + .   . . . X . i =.V.E.n.^.A.&.) w.l.| +.<.J X . .   . . + . . . . .                           ",
"                          . . . . . . . . . ; . i -.H.W.b.E.V.&.) e.u.| ,.*.H # . . 8 : . . . . . . .                           ",
"                          . . . . + . . . . . . i -.x.).H.n.A.&.) q.| +.t.%.H # . . 7 > . . . . . . .                           ",
"                          . . . + . . . . . . . i -.w.W.E.n.A.&.) q.| &.i.+.J $ . .   . . . - + . . .                           ",
"                          . . . = . . . . . . + i ;.9.Y.T.v.A.&.) q.| <.7.| J # . . . . . . . . . . .                           ",
"                          . . . . . . . . + . . i $.w.L.E.V.n.&.) $.+.i.&.} J # . . . . . . . . . . .                           ",
"                          . . . . . . . + = . . i -.w.i.~.L.v.&.W +.,.>.| | K # . = . . . . . . . . .                           ",
"                          . . . . + . . . . . . 1 P :.a.C.W.A.&.W +.<.| +.C s X . . . . . + = . . . .                           ",
"                          . . . . + .   . . . . . V Y X.p.W.A.&.W ,.$.[ C N , . . . . +   7 z   . . .                           ",
"                          . . . . . . 6 + . + . . r ) L #.k.n.&.W @.~ C J m X . . . . . . . . . . . .                           ",
"                          . + + . . . v - . . . . . y | / / y.&.W L n ~ Q % . . + = . . . . . . + . .                           ",
"                          . . . . . .   . . . . . . X Z $...! _ A P { ! 9 . . . . + . . . + . . = . .                           ",
"                          . . + . . . . . . . . . . . # V :.q.I G  .! 2 . . . + . . . . . . . . . . .                           ",
"                          . . . + + . + . . . - . . . . , I 2.^ D ~ q . . . . . . . = . . . . . . . .                           ",
"                          . . . + + . . . . . . . . + . . 0 } / M t . . . . + . . . . . . . . . . . .                           ",
"                          . + . . . . . - . . . . . . . . . r A 9 . . . . . + + . . . . . + - . . + .                           ",
"                          . . . . . . . + . . . . . . . . . . # . . . + . . . . . . . . . . . . . . .                           ",
"                          . . . . . . . . . . . . . . . . . . . . . . . . . . . . . . . . . . . . . .                           ",
"                                                                                                                                ",
"                                                                                                                                ",
"                                                                                                                                ",
"                                                                                                                                ",
"                                                                                                                                ",
"                                                                                                                                ",
"                                                                                                                                ",
"                                                                                                                                ",
"                                                                                                                                ",
"                                                                                                                                ",
"                                                                                                                                ",
"                                                                                                                                ",
"                                                                                                                                "
};
