/* XPM */
static char *enemy[] = {
/* columns rows colors chars-per-pixel */
"64 64 20 1 ",
"  c black",
". c #361715",
"X c #3A1615",
"o c #371D1B",
"O c #3D2523",
"+ c #313231",
"@ c #461817",
"# c #451919",
"$ c #4E1C1A",
"% c #541E1C",
"& c #601D1C",
"* c #53201F",
"= c #412624",
"- c #472F2E",
"; c #4A2F2E",
": c #572321",
"> c #5B2624",
", c #493130",
"< c #642624",
"1 c #C80000",
/* pixels */
"1111111111111111111111111111111111111111111111111111111111111111",
"1111111111111111111111111111111111111111111111111111111111111111",
"1111111111111111111111111111111111111111111111111111111111111111",
"1111111111111111111111111111111111111111111111111111111111111111",
"1111111111111111111111111111111111111111111111111111111111111111",
"1111111111111111111111111111111111111111111111111111111111111111",
"1111111111111111111111111111111111111111111111111111111111111111",
"11111111111111111111111111+1111111111111111111111111111111111111",
"1111111111111111111111111111111111111111111111111111111111111111",
"111111111111111111111111+111111111111111111111111111111111111111",
"1111111111111111111111111111111111111111111111111111111111111111",
"1111111111111111111111111111111111111111111111111111111111111111",
"111111111111111111111111 11111111111111&111111111111111111111111",
"111111111111111111111111 %1.11111111.1@ 111111111111111111111111",
"111111111111111111111111    .111111.    111111111111111111111111",
"1111111111111111111111111              1111111111111111111111111",
"1111111111111111111111111*            %1111111111111111111111111",
"111111111111111111111111+111        1111111111111111111111111111",
"11111111111111111111111111111$    $11111111111111111111111111111",
"111111111111111111111111111111    111111111111111111111111111111",
"1111111111111111+1111111+1111.    .111111111+1111111111111111111",
"111111111111111111111111111111.11.111111111111111111111111111111",
"1111111111111111111111111111111111111111111111111111111111111111",
"1111111111111111111111111111111111111111111111111111111111111111",
"1111111111111111111111111111111111111111111111111111111111111111",
"1111111111111111111111111111111111111111111111111111111111111111",
"1111111111111111111111111111111111111111111111111111111111111111",
"1111111111111111111111111>            >1111111111111111111111111",
"111111111111111+111111111>            :111111+111111111111111111",
"111111111111111111111111111111111111111111111+111111111111111111",
"1111111111111111111111111111111111111111111111111111111111111111",
"111111111111111;=o111111111111111111111111111,Oo1111111111111111",
"111111111111111    .111111111111111111111111X    111111111111111",
"111111111111111-Oo111111111111111111111111111,Oo1111111111111111",
"1111111111111111111111111111111111111111111111111111111111111111",
"111111111111111111111111111111111111111111111+111111111111111111",
"111111111111111+11111111111111111111111111111+111111111111111111",
"1111111111111111111111111111111111111111111111111111111111111111",
"1111111111111111111111111111111111111111111111111111111111111111",
"1111111111111111111111111111111111111111111111111111111111111111",
"1111111111111111111111111111111111111111111111111111111111111111",
"1111111111111111111111111111111111111111111111111111111111111111",
"1111111111111111111111111111111111111111111111111111111111111111",
"1111111111111111111111111111111111111111111111111111111111111111",
"1111111111111111111111111111111111111111111111111111111111111111",
"1111111111111111111111111>   %1111<   $1111111111111111111111111",
"1111111111111111111111111>   $1111<   #1111111111111111111111111",
"1111111111111111111111111111111111111111111111111111111111111111",
"1111111111111111111111111111111111111111111111111111111111111111",
"1111111111111111111111111111111111111111111111111111111111111111",
"1111111111111111111111111111111111111111111111111111111111111111",
"1111111111111111111111111111111111111111111111111111111111111111",
"1111111111111111111111111111111111111111111111111111111111111111",
"1111111111111111111111111111111111111111111111111111111111111111",
"1111111111111111111111111111111111111111111111111111111111111111",
"1111111111111111111111111111111111111111111111111111111111111111",
"1111111111111111111111111111111111111111111111111111111111111111",
"1111111111111111111111111111111111111111111111111111111111111111",
"1111111111111111111111111111111111111111111111111111111111111111",
"1111111111111111111111111111111111111111111111111111111111111111",
"1111111111111111111111111111111111111111111111111111111111111111",
"1111111111111111111111111111111111111111111111111111111111111111",
"1111111111111111111111111111111111111111111111111111111111111111",
"1111111111111111111111111111111111111111111111111111111111111111"
};
