/* XPM */
static char *enemy[] = {
/* columns rows colors chars-per-pixel */
"64 64 6 1 ",
"  c None",
". c #500000",
"X c #780000",
"o c red",
"O c green",
"+ c white",
/* pixels */
"                                                                ",
"                                                                ",
"                                                                ",
"                                                                ",
"                                                                ",
"                                                                ",
"                                                                ",
"                                                                ",
"               oo                              oo               ",
"                o                              o                ",
"                oo                            oo                ",
"                 o                            o                 ",
"                 oo                          oo                 ",
"                  o                          o                  ",
"                  oo                        oo                  ",
"                   o                        o                   ",
"                   oo        XXXXXXX       oo                   ",
"                          XXXXXXXXXXXXX                         ",
"                        XXXXXXXXXXXXXXXXX                       ",
"                       XXXXXXXXXXXXXXXXXXX                      ",
"                     XXXXXXXXXXXXXXXXXXXXXXX                    ",
"                    XXXXXXXXXXXXXXXXXXXXXXXXX                   ",
"                    XXXXXXXXXXXXXXXXXXXXXXXXX                   ",
"                   XXXXXXXXXXXXXXXXXXXXXXXXXXX                  ",
"                  XXXXXXXXXXXXXXXXXXXXXXXXXXXXX                 ",
"                  XXXXXXXXXXXXXXXXXXXXXXXXXXXXX                 ",
"                 XXXXXXXXXXXXXXXXXXXXXXXXXXXXXXX                ",
"                 XXXXXXXXXXXXXXXXXXXXXXXXXXXXXXX                ",
"                 XXXXXXXOOOOOXXXXXXXOOOOOXXXXXXX                ",
"                XXXXXXXXOOOOOXXXXXXXOOOOOXXXXXXXX               ",
"                XXXXXXXXOOOOOXXXXXXXOOOOOXXXXXXXX               ",
"                XXXXXXXXOOOOOXXXXXXXOOOOOXXXXXXXX               ",
"                XXXXXXXXOOOOOXXXXXXXOOOOOXXXXXXXX               ",
"                XXXXXXXXXXXXXXXXXXXXXXXXXXXXXXXXX               ",
"                XXXXXXXXXXXXXXXXXXXXXXXXXXXXXXXXX               ",
"                XXXXXXXXXXXXXXXXXXXXXXXXXXXXXXXXX               ",
"                 XXXXXXXXXXXXXXXXXXXXXXXXXXXXXXX                ",
"                 XXXXXXXXXXXXXXXXXXXXXXXXXXXXXXX                ",
"                 XXXXXXXXXXXXXXXXXXXXXXXXXXXXXXX                ",
"                  XXXXXXXXXXXXXXXXXXXXXXXXXXXXX                 ",
"                  XXXXXXXXXX+++++++++XXXXXXXXXX                 ",
"                   XXXXXXXXXXXXXXXXXXXXXXXXXXX                  ",
"                    XXXXXXXXXXXXXXXXXXXXXXXXX                   ",
"                    XXXXXXXXXXXXXXXXXXXXXXXXX                   ",
"                     XXXXXXXXXXXXXXXXXXXXXXX                    ",
"                       XXXXXXXXXXXXXXXXXXX                      ",
"                        XXXXXXXXXXXXXXXXX                       ",
"                          XXXXXXXXXXXXX                         ",
"                .            XXXXXXX            .               ",
"                .                               .               ",
"               ...                             ...              ",
"               ...                             ...              ",
"              .....                           .....             ",
"              .....                           .....             ",
"             .......                         .......            ",
"             .......                         .......            ",
"            .........                       .........           ",
"                                                                ",
"                                                                ",
"                                                                ",
"                                                                ",
"                                                                ",
"                                                                ",
"                                                                "
};
