/* XPM */
static char *exit[] = {
/* columns rows colors chars-per-pixel */
"64 64 203 2 ",
"   c #050C0E",
".  c #02120D",
"X  c #021B0C",
"o  c #050E11",
"O  c #080E12",
"+  c #051313",
"@  c #031B16",
"#  c #041618",
"$  c #041C19",
"%  c #02230D",
"&  c #022B0F",
"*  c #022313",
"=  c #022B13",
"-  c #03231B",
";  c #032B1C",
":  c #023413",
">  c #023C13",
",  c #02331D",
"<  c #033C1D",
"1  c #032720",
"2  c #032C21",
"3  c #033422",
"4  c #033C22",
"5  c #014415",
"6  c #024C15",
"7  c #03431D",
"8  c #034B1B",
"9  c #025316",
"0  c #025C14",
"q  c #01541B",
"w  c #035B1C",
"e  c #026414",
"r  c #026C15",
"t  c #04631B",
"y  c #036B1A",
"u  c #017315",
"i  c #017C15",
"p  c #05731A",
"a  c #037C1B",
"s  c #034B22",
"d  c #034328",
"f  c #044B2A",
"g  c #045423",
"h  c #045C23",
"j  c #04532B",
"k  c #045B2C",
"l  c #065F32",
"z  c #056226",
"x  c #056B22",
"c  c #05632A",
"v  c #056B2B",
"b  c #087126",
"n  c #067B23",
"m  c #087D25",
"M  c #08762B",
"N  c #067B2C",
"B  c #097A2A",
"V  c #046330",
"C  c #018216",
"Z  c #018D17",
"A  c #04841B",
"S  c #058B1C",
"D  c #0E8B1E",
"F  c #039317",
"G  c #0B961D",
"H  c #05991E",
"J  c #0D9C1D",
"K  c #109C1E",
"L  c #0BAA1E",
"P  c #10A31F",
"I  c #0EB31C",
"U  c #12B91E",
"Y  c #098924",
"T  c #09832D",
"R  c #0A8D2C",
"E  c #059322",
"W  c #099421",
"Q  c #0E9B20",
"!  c #0A932D",
"~  c #119F21",
"^  c #098532",
"/  c #048E31",
"(  c #0B8C31",
")  c #0C9033",
"_  c #079D31",
"`  c #0D9B33",
"'  c #0CA322",
"]  c #06AE27",
"[  c #0AAC22",
"{  c #0AAD2D",
"}  c #12A523",
"|  c #14AB23",
" . c #1FAF24",
".. c #10A92E",
"X. c #0CB325",
"o. c #0DBA27",
"O. c #06B22C",
"+. c #09B42D",
"@. c #16B323",
"#. c #1BB524",
"$. c #14BA23",
"%. c #1CBB24",
"&. c #15B42A",
"*. c #14BE2B",
"=. c #0FA035",
"-. c #0AAE30",
";. c #07B631",
":. c #0CB533",
">. c #07B931",
",. c #10B730",
"<. c #23AF27",
"1. c #22BD26",
"2. c #23BB28",
"3. c #2AB829",
"4. c #1BD61F",
"5. c #16C325",
"6. c #1CC424",
"7. c #1AC926",
"8. c #15C12B",
"9. c #1DC42C",
"0. c #1DCD2C",
"q. c #1FD327",
"w. c #1FDE26",
"e. c #1DD32C",
"r. c #1FDE2A",
"t. c #0CC135",
"y. c #15C233",
"u. c #1CC230",
"i. c #1DCA30",
"p. c #1ED530",
"a. c #23C326",
"s. c #23CB26",
"d. c #2AC22B",
"f. c #24CB2C",
"g. c #2BCB2D",
"h. c #33CD2E",
"j. c #25D527",
"k. c #23DC24",
"l. c #23D42C",
"z. c #2AD72D",
"x. c #23DB2C",
"c. c #32D32C",
"v. c #39D32F",
"b. c #31DC2D",
"n. c #3ADB2F",
"m. c #2CCC30",
"M. c #31C733",
"N. c #34CE31",
"B. c #3ACE32",
"V. c #22DC31",
"C. c #2ADA31",
"Z. c #36D432",
"A. c #3BD333",
"S. c #35D931",
"D. c #3CDE31",
"F. c #1FE224",
"G. c #22E125",
"H. c #25EC24",
"J. c #23E22B",
"K. c #2CE729",
"L. c #37E62C",
"P. c #32ED2A",
"I. c #26F223",
"U. c #2BF527",
"Y. c #38F62B",
"T. c #2CE332",
"R. c #2FE933",
"E. c #3CE132",
"W. c #31EB34",
"Q. c #43D534",
"!. c #43DB35",
"~. c #44D439",
"^. c #48DA3A",
"/. c #55DE3E",
"(. c #45E134",
"). c #4EE137",
"_. c #44EC33",
"`. c #49ED35",
"'. c #4EE239",
"]. c #4EEB3A",
"[. c #50EC36",
"{. c #53E43C",
"}. c #5AE43F",
"|. c #53EB3A",
" X c #5AEB3E",
".X c #45F232",
"XX c #4EF338",
"oX c #53F13A",
"OX c #5FF33F",
"+X c #5BEC42",
"@X c #5EF240",
"#X c #63ED43",
"$X c #67E847",
"%X c #6DEC4A",
"&X c #71EB4C",
"*X c #65F343",
"=X c #6BF547",
"-X c #67F548",
";X c #6CF449",
":X c #73F34A",
">X c #7AF64E",
",X c #79F84E",
"<X c #86F856",
/* pixels */
"                                                      o       o                   o                                             ",
"                            o                                   o       o         o                                             ",
"                                o o                         o o o       o o o o o                                               ",
"                              o                           o o   + o o o   o o     o o o o   o o                       o         ",
"                      o         o o         o   o       + + + . . . + +     +   + o o o     o o o                               ",
"                    o o   o o   o o o       o o + + + + + + . . . . . + + .   . + o o o     o   o o               o             ",
"    o             o o   o o     o       o + + + + . + .   . . . . . .   . + + . . + + +       o   o o o           o             ",
"                  o o   o o     o o + o + + + + .     * 4 d f f f f d 4 @ . .   + + + + .     o o o o o o o                     ",
"                        o o o   o o + + + .   . @ , * = d 4 4 d 4 4 4 d * = , * .   . . . + + o o o o o o o o                   ",
"                  o   o o o o   + + . +   . , d f j d X , , 3 , , 3 ; 3 * s l f d , . . + + + . + + o o o       o o             ",
"                o o o o o + + + + + + . * 4 4 4 4 3 4 X = d 4 < < 4 4 , = d 3 4 d d d * . + . + + + + o o                       ",
"                o o o o + + + + + . . @ d 3 ; , < 7 s : 7 v M B B M c 7 : s d d 4 3 4 f *   . . . + + o o               o o     ",
"              o o o + + + + . + . * f * * 4 < 8 h M ^ x b R Y Y Y Y ! b w ^ M h 7 d 4 , X < = . . . + + + o     o       o o     ",
"              o o o + + . . . . @ 4 d 4 % : g ^ ( m p u i C Z F F Z C i u p m R T g 7 % , j f * . . . + + +     o               ",
"        o       o o . . . + . X 4 4 , d < 5 ) n e u F #.A.{.+X-X;X%X$XB.#.F u e n ` 8 : j 4 d 4 X . . . + +                     ",
"            o   o + + . . . . ; 3 4 4 7 M t e r H M.$XoX).Q.h.B.B.Q./.$X:X$Xg.G r e y ^ s d 4 4 , . . + + +     o o             ",
"              o o + . . . . ; 3 , 4 7 ) R e C #.+X$XQ.%.U %.a.6.6.6.$.U %.A.Y.H.$.S r R ) 8 d , 4 ; . + . + + . o o   o         ",
"    o           + + + . . . ; 3 < < ^ ` 0 F N.*X!.$.U A.$X*X.XP.P.Y.|.'.g.$.%.k.U.z.H e ! ( 8 7 4 , . . . . + + o o             ",
"            o   + . . . . @ X * 4 v ` 0 F ^.*Xa.U N.$X$X^.f.0.u.9.d.g.A.|.|.c.#.a.XXE.H e ! M 8 : X * . . . + +   o o   o o     ",
"          o   o   . . . . ; 4 = : ( r C ~.:X%.$.'.:XB.*.>.;.O.O.] O.>.>.*.h.*X{.%.%.|.A.F r ( 8 > d , X . . . . o   o o         ",
"              o + . . . * , 4 g M 0 u d.,Xa.%.|.$X#.t.+.$.0.l.l.e.l.0.o.O.>.$.$X X%.%.=XN.i e B c d 4 = . . + + + o o           ",
"            o   . . . . ; 3 4 h =.e ' *Xv.U '.$X*.>.[ l.W.f.| } } @.l.R.l.[ t.*.$X|.$.h.@X' e =.z < 4 , . . . + .   o o o o     ",
"    o     o o   . . . @ 3 , < ^ p i !.{.U ~.>X8.+.X.R.d.A e 9 6 q q e A f.R.L >.*.$XQ.U (.S.i b ( < 4 4 @ . . . . + +   o       ",
"            o . . . . - 4 < g T e ' @Xd.%.>XZ.>.[ R.| e 6 > & & & = > 6 r %.W.[ >.g.<X1.d.XX' e T s 4 4 * . . . . o o           ",
"          o   + . . . * < 8 v b r A. XU ^. X+.+.x.9.e 5 & % X X X X % : 6 e d.x.X.+.$X/.U _.f.r m v d < * . . . . o             ",
"      o o o   . . . . X = : w t A ].v.%. Xf.>.5.R.p 6 & % X . . . . X % & 6 r C.$.>.m.$X#.c.E.C y h = % X . . . . + o o         ",
"            . + . . . , d g B 9 J *X1.h.|.8.+.x.@.0 : % X . . . . . . X % > 9 } x.O.y.XXs.a._.G 0 M s < , . . + .     o o       ",
"          o + + . . . , 4 g B 0 <.%XU n.).>.+.T.S 6 & X X . . . . . . . X & 5 A R.X.>.K.k.1.OX| e M s 4 ; . . . .               ",
"          o + . . . . , 4 g B e 3.$XU _.n.>.*.l.u > % X . . . . . . . . X % > e R.5.:.k.H.#. X#.r b d 4 , . . . .               ",
"        o   . . . . . , d g T e 3.%XU `.D.;.$.l.e > % . . . . .   . . . X % : 0 l.5.-.G.H.#.`.%.u N 8 4 , . . . . . +           ",
"              . . . . , d h T e d.%XI |.!.O.$.x.0 : X . . .         . . . % : 0 f.7.{ G.H.#._.6.u T s 4 , . . . . . +           ",
"    o o       + . . . * : 8 t e 3.&XI }.!.>.$.l.r : X . . .         . . . % : 0 f.5.:.G.H.#.*X2.r t > = X . . . . .     o       ",
"            + . . . . , d h B e  .>X%.n.(.>.X.x.a > % . . .           . X % > p R.X.:.G.k.1.<X .r T s d = . . . . .     o       ",
"            . . . . . , d 8 M 0 J ;Xd.d.[.*.+.q.~ 6 & X . .           . X & 6 } R.O.y.P.s.a.=XK r N 7 4 , . . . .               ",
"    o       + . . . . , d s v 0 S $XQ.@._.f.>.5.l.0 : X . .           . X : e R.$.>.9..X%.c.|.Z r N 7 4 , . . . . .             ",
"          o o . . . . , 4 d x 9 i N.$X@.b.L.>.{ x.K : X .           . . X : D j.[ >.D.E.@.{.A.i t M 7 4 , . . . .               ",
"    o         . . . . , 4 d z 6 r } @Xd.%.U.7.>.L i > % .           . . X > e F t.9.XX1.1.oX@.u 9 v d d , . . . .     o         ",
"        o       . . . X * : > 5 e A Z.(.#.k.I.&.>.y > % . .       . . . % : t :.&.I.j.#.D.D.S 0 5 8 : = X . . .                 ",
"        o     . . . . ; < s g > w a } P.s.2.H.F.' n > % . .           . % > y ' H.H.#.s.XX| a w > z g d ; . . . .               ",
"                . . . , 3 < h : 5 y A 6.I.%.1.H.4.p > % X .         . X % > u 4.I.1.a..Xf.A t 8 > z < 3 ; . . . +               ",
"                . . . ; , 4 g < > 5 y W w.P.2.%.U.G > % X .         . X % > J U.%.6.oXS.F e 6 : : c , 3 ; . . .                 ",
"                    . ; ; < g = = : 9 r W b._.1.J.G 5 & X . .       . . & 5 P T.1.XXZ.F r 6 > = : k , ; ; . . .                 ",
"                    . - ; , d X = = > 9 r E z.c.F.J 5 & X . . .   . . X & 5 P J.c.f.F r 9 > : = % s , ; *   .                   ",
"  o               . @ @ * = , , * = = > 6 e S ' J.G 8 : X . . . . . . X & 5 P J.H A e 9 8 : = * , < = * @ @ .                   ",
"  o               + ; ; ; 4 j j @ = = : 5 q y A w.J 8 : % X . . . . . % : 5 P J.a t 8 > : = = * j j 3 ; 2 -           o         ",
"                  + $ $ - ; ; d @ * = = : 8 w A x.Q 8 : % X X X X X X % : 6 | x.a w 5 : * = = * s , ; - $ @                     ",
"                  + - - - - ; d X @ * * = 5 w A x.' 9 > & % % % % % % & > q [ x.a w > = * * * X s 3 ; - - $                     ",
"                  . @ @ $ @ * , * @ @ * = 7 b E f.0.S y 6 > > : : : 5 6 y W e.e.E n 8 = * * * * , - - - @ +                     ",
"o o     o       - - - - @ @ 3 4 4 - X * = h / { e.0.x.e.#.| Q Q J J ' $.e.x.e.e.,./ z = * X ; d 4 4 @ @ @ - - -                 ",
"                + $ $ $ $ @ ; - $ @ . , s 7 N _ y.e.e.x.J.x.J.J.J.r.r.x.J.x.p.y._ N 7 g < . @ ; ; ; @ @ - $ $ +                 ",
"  o             + + + + + . $ $ $ + . , k d < h b R ..*.0.p.V.V.V.V.x.0.*.| ! N h < < k f . @ - - $ . + + + + +                 ",
"o o o o o       + + + # + . $ +       @ 2 d f d : s q w t x n n n n b y h g q > s V j 4 -       + @ . + + + + +     o o o o o o ",
"o o o o     o   + + + # + . +   @ 2 $ . + $ - * , j j k < < v v v v c k k k j ; * 3 $ + . @ 2 @   + . + + + # +     o o o o o o ",
"o o o     o o   + + + + +   +   + $ 1 2 - @ @ . - - $ ; @ , d d d d 4 4 ; ; ; $ . + @ - ; 3 - +   +   + + + + +   o + o o o o o ",
"o o o o + o                     + # + $ 2 - . - - $ @ + . + @ @ + + + + @ @ $ ; ; + - 3 - + + +                   o o o o o o o ",
"o o + + + + + + + + o + + + o     + # # +   @ - 2 3 3 + - 3 ; ; - ; 2 - @ 3 3 3 2 $   + + + + o   o + + + + + + + + + + + + O O ",
"o + + + + + + + + + $ $ + + + + o     o o   + # + $ $   $ - - - - - - - + $ $ # + +   + + o     o + + + $ $ + + + + + + + O o O ",
"O O + + + + + + + o + + + $ $ @ + + + o o   o + + + +   + # # # # $ $ #   + # + + o     o o + $ - @ @ @ + + + + + + + o o O O O ",
"o O O + + + + + + + + + + @ - - + @ @ @ + + + + + +         o + + o o             o o + + $ + @ $ + + @ @ @ @ + + + + + O O o o ",
"o o O O O + + + + + + @ + + + + @ @ @ @ - - $ @ + + + + + + + + + + + + + + + $ $ + $ 2 2 @ @ + + + @ @ @ @ + $ # + + + O O o o ",
"o o O O O + + + + + $ + @ @ @ $ $ @ @ + + $ @ @ @ - $ @ @ $ $ $ $ $ $ $ @ $ - @ $ @ @ + + + @ @ @ @ $ $ + + + + + + O O O o o o ",
"o o o o o O O + + + # + + + + @ @ @ @ @ @ @ @ @ @ + @ $ $ $ - - $ $ @ @ @ @ - @ @ @ @ @ @ $ @ + + + + + + + + + + O O O o o O o ",
"o o o o o o o o + + + + + + + + + + # + # + + + + @ + + # # $ $ $ + @ $ $ $ + + + @ @ @ # + + + + + + + + + + o o o O o o o o o ",
"o o o o o o o o o + + + o o + + + + + + + + + + + + + + + # + + + + + + # # # + + + + + + + + + + o o o o O o o o o o o o o o o "
};
