/* XPM */
static char *floor[] = {
/* columns rows colors chars-per-pixel */
"64 64 105 2 ",
"   c #070706",
".  c #080706",
"X  c #070807",
"o  c #080807",
"O  c #080709",
"+  c #070909",
"@  c #0F100F",
"#  c #10100F",
"$  c #0A0E10",
"%  c #0C1114",
"&  c #0B141B",
"*  c #0D191F",
"=  c #171817",
"-  c #181817",
";  c #151718",
":  c #15181C",
">  c #1B1C1C",
",  c #1F201F",
"<  c #20211F",
"1  c #0B1722",
"2  c #0D1923",
"3  c #0D1D2C",
"4  c #121C23",
"5  c #1B1F23",
"6  c #111F29",
"7  c #0D1F33",
"8  c #0D202F",
"9  c #172026",
"0  c #1F2022",
"q  c #14222C",
"w  c #1C252D",
"e  c #0E2134",
"r  c #0D253B",
"t  c #0F293F",
"y  c #162532",
"u  c #162936",
"i  c #11263B",
"p  c #172A39",
"a  c #192B3B",
"s  c #232323",
"d  c #272827",
"f  c #272728",
"g  c #272828",
"h  c #2C2C2C",
"j  c #212E38",
"k  c #22313C",
"l  c #343434",
"z  c #3B3A3B",
"x  c #0F2941",
"c  c #1B2E41",
"v  c #112F48",
"b  c #163045",
"n  c #1C3244",
"m  c #15324B",
"M  c #1C354C",
"N  c #1F384E",
"B  c #1D3C54",
"V  c #1B3D58",
"C  c #233645",
"Z  c #233946",
"A  c #2C3A46",
"S  c #22374A",
"D  c #243B4E",
"F  c #213C51",
"G  c #223F59",
"H  c #2C424F",
"J  c #34424F",
"K  c #244154",
"L  c #2B4256",
"P  c #21405B",
"I  c #29465F",
"U  c #2E4A5F",
"Y  c #334556",
"T  c #334759",
"R  c #34495A",
"E  c #294761",
"W  c #2E4D66",
"Q  c #384D61",
"!  c #385167",
"~  c #38556B",
"^  c #3B586E",
"/  c #3C5B71",
"(  c #424342",
")  c #4E4E4E",
"_  c #4C4D50",
"`  c #525354",
"'  c #5A5A5E",
"]  c #405565",
"[  c #445867",
"{  c #475C6C",
"}  c #495D6C",
"|  c #445F74",
" . c #446074",
".. c #47667B",
"X. c #4D677A",
"o. c #506575",
"O. c #516779",
"+. c #50697B",
"@. c #656565",
"#. c #6D6D6C",
"$. c gray44",
"%. c #7C7C7C",
"&. c #5C7484",
"*. c #627784",
"=. c #647C87",
/* pixels */
"X X X   + + + X o + + o X X X X X +   q P 4 X + o o     X X   o X X X X o o X   X o o o X X X X X o + X X o o o X     o o o X X ",
"X X + X o + + X X + + X X X X o X + o u W q . + X   + + X X + +     X o o X + + o X o o X X X X + = = + o X X o X + + X o o X X ",
"X o + X o + o X o X o X X o o o + + $ k / u + + + . + @ X o + +   X X o o   + + o X + o   X o   + 5 : + o X X X X + + X o o X o ",
"X X   o o   + o o o o X o X o + a L T { *.{ Y M 4 . + + X o o o X X X X o X o + X o + o X X X X o + +   X X X X X + + X X . X X ",
"X o + o - h = o o o o o X X + + a L R } *.[ Y S 4   X   X o o o X X X X o o X   X X X + + X X X o + + + o X X X X X X X o + + X ",
"X + +   h #.h   + o o o X o o o + $ % k ^ w + + + o X X   X o o X X X X o o X   X o + + + + o   + = + + + X X X o o o X o + +   ",
"X o + + = h = o o o o + + o o X o + o y I 4 . + o o X X X X o X X o X X X X X X X + + w C %   o o + + + o X X X o o X X X + o X ",
"X X   o +   + o X X X + + X o o X +   6 M * X + o o X X X X o o X o X o X X X o o + % H ~ 4 + o o     X X X X + = + o X X   X o ",
"X X o X o + o o o X X X X o o o X X   $ & +   X o o X X X X   X X X o + +   o + o : L o.*.Q j + + o o o X +   h @.>   +     X o ",
"X X o o X X o o o X X + + o o o X X X   X   X X X X X X X o + + X X o + + X o o + % j ] O.A 9 + o o o o X +   < ( = o o X   X o ",
"X X o o X X   X o X X + + o o   X X +   + X X X X X X X X + + +   o X   X o X   X + $ Z U % + + X X X . X X o X + + o X X X X X ",
"+ + X X o + + + X o X + + X       + ; %   o X   X X X o X o + + X X X X o   + + o o + & 4 + o X X X + + + X X o + X X X X X + o ",
"+ + + + + + + + X o o X + = + o   + > = + o + $ + X o X o o . o X X X X o   + + o X o X . o o o X X + + + X o o o X X o X X + + ",
"+ o o o X o o o o X o X = z l +   X + + X X % n 6 . + X   X o o X o o X X X X X X X   X + X X X X X X o X X X X   X X X X X X X ",
"X X X o X X X X X X o = s ) ( = +       X X % n 6 . + X o o o o X X X X X o X X X X + o X X o X X X X X X X X + $ + X X X X X X ",
"X X   o X X X X o   # l ) %.$.( ,   + X   X + + + X X X X o o X o o X o o o o o   + = +   o X o X     o X o X % 6 +   o o o X   ",
"X + + o X o X X o X + s l @.' h = + o X X X X X X o X + > > + o o o o X   o o o X + + +   X X X o + + X X o   + & + o o o o + + ",
"X + + o X o X X X o o X = z l + + o o o o o X X X o X + s 0 + o X o + = + X o o o o   X o X X X o @ + X X X X   X o o o o . + + ",
"X o o X   X   X X o X o + = = o o X X X X X o o X     X + + X X +   > @.l   + X o o o X X + + X X X X X X X X X X X . o X   o o ",
"o X X   + = +   X X X X   o o X X X X X o o o   + + +       X X o X > ) h + + X o X X X X + + X o X X X X X X X + + + X o + X X ",
"X X o o = h = X o X o X X o o X X X X X   X o   + = +   o X X X   X + + + o X   X o X o o X o X X o o + X o X + + @ +   + + + X ",
"+ + o . + > +   o X X X X X X X X X X + + + X X + + +   X X o o X X o + o o X X o o X X X X X o o X o + X X X o + + + X o + X X ",
"+ +   o       o X X o o X o +   X X   + + + X o X   X X o o + + X o X o X o o o o X X X X X X o + + + o X X o o o . . o X   X o ",
"o X   X X o o X o X X   X X o + X X   X + o X X   X   X X o o o X X X X X X X X X X X X X X X   % 7 3 + X o X + o . . o X X X o ",
"o X o X X o o o o X + $ + X + + X o + X X X o   + > # . o X o X X X X X X X X X o X o X X   X + & x 7 + + X X X o X X X X X X o ",
"o     o X o . o o   % n a + o   X X   o o X +   h ' l + + X X X X X X X X   X X o X o o X X X X % x 7 + X X o X X + +   o X X X ",
"  + + + X X .   o   $ a u + X X   + > =   X +   > z s o + X X X X X X X o + o X o X o o + X + 1 y P M 2 $ X + X X + + X o o o   ",
"  + > +   o o X o o X + + o X o o > ' z + + X o + + o o X X X O + O X X + @ +   X X o + + + & x B | Q v 1 + + + o   X o   . X X ",
"  + + o X o o X X X X + o X X o   + h > X o o X o + o X X o X & 3 %   X o + +   X o X & e n F W ^ &.X.Q D c e & o o o   + % +   ",
"o     X X X o X X X X X X X X o o       o X X X o o o X X + X & i % X o X   o o o + + 3 v G W / X.=.&.| W G v 2 + + o   + = +   ",
"o o o X X X X       X X X X o o X . o o X X X o     o X X X X + % + X o o o X X o X   $ & & q B W ../ B y & % + . X X X + + o o ",
"o X X + o X   + & +   X o o o o X o + + X X o   + > =   X X X     X X X X X X X o X X   X   $ 7 b ~ P e & X O   X X X o o   X X ",
"o X X + + + X & x & X + o o X     + # +   o +   > z d + o X X X X X X o X X X X X   o o + + + + 2 V b $ + + X X X X X X o o X X ",
"X X X + + +   2 M & X + o o o X o o + + X X o   @ < = + o X X X X X   o   X X X + + . o + + + o & m i + X X X X X + + X X X o o ",
"o o o X X + + q P 4 + + o o o o o o     o o o o     o o o X o o X   + = +   X X + +   X X X X . % r 3 + X X X X X + + X o + o o ",
"o o o o X % n Q O.R n %   o X   X o o X o o   o o + o X + + + o +   > _ f o + X o + + + X X X X + % $ o X X X X X   o   = > +   ",
"o o + o   % n Q +.R c %   o X + o X X X X + % + X X X X o o o o +   > ) s o + X   o + +   X o o X     X X X X X X + +   % ; +   ",
"X + + + X + + y W y + + o   + = +   X + . 4 n % X o X o   X o o o X + = +   o X X X X o o o o o X X     X o X o o     o . + X o ",
"X + + o X + . 4 B 4 X + o   + % +   X X X & q $   o X X + + X X X o o o   X X X X X o o o o X X o + + X X X X o + w 5 + o X o o ",
"X X   o o + X & t & X X X o X     X X X o X o   X o o X + +   X X X X o X X X o o o o o o o o X o + +   o o X o + J A + + X o o ",
"o o X   o o   + % + . o o o o o o X X o X X + o X     o + + X X X X X   X X X o o o o     X X X X + o o X o X X + : ; + o X X X ",
"o X + > = o o     . o X o o o X o + X X o X o X o + + X X X X X X X X + o X X X X o X + @ o X X X X X   = = + X X   o X X X X o ",
"o   = ( l + + X X X X X X   X   + + X   o X X   + = +   X X   X o   + = +   + X X X + = > +   X X X o + s h +   X + o X X X X o ",
"o   + h s + o X X X X X X + +   + + X X o o X X + @ +   X X X X o   o + +   X X X + = h l =   X X X o + > > + X X X X X X o X X ",
"o X X o o o o X X X X X o + + X X   X X X X X + +     X X X X X + X X   X + X X X @ 0 ( ` = o o X X X o o X X X X X X o + + X X ",
"    X + o X o o   X X X X + o X X X X X X   $ 3 & o + X X X X X X X X o   X   X X + % s g +   X X X X X o o   X X X o X = h =   ",
"    X X X X X X + o o o X o o X X X X X + + % v 3 + + X X X X     X X   + % +   X .   + + + X X X X X   X X + o X X o   > l = X ",
"X X X X X X   + ; +   o X   X X X X X X . O & G p + X X   X X X X X + . 6 N 4   + o X o + X X X X     .   o + +   X X X + + + X ",
"X X X X X X   + = +   X + = = + X o + % q w k ^ L 6 * & + X X X X X X X & y & X o X X X X X X X + % $   X X + + X X X X X X X X ",
"X X X X X X X   X   o   + l h + o + o q E ! | &. .P m r $   X X X X X X X o X X X X X X X X X   + 3 2 + X X   X X X X X o + o X ",
"o X X X X X X X X X X   + = = X   X   % 4 4 u ~ D 4 & % +   X X X X X X X + o X X X X X X X X X + % $   X X X X X X X X X o X X ",
"X o X   X X X X X X X X X o o X X   X X X X & P p + +   X X X X X X X o X X o + X X X X X o o X X     X X X X X o X X X     X X ",
"o X o = +   o o o X X o o + o o X X @ + + O % v 8 + + X X X X     X o o X o o     X X X X     o X X X X X X   X + X X X X X o o ",
"o X o # +   o o o X X X o + + X X X @ +     + 3 & X X X X X X o + o X X o o = s +   X X   + + o X X X X X X   X + + o X X X X o ",
"X X X   o X     X X X o       o X X X X X X . + X X X     X   + + +   X +   h ` > o o o o = > + X X X X X X X X X     o X   X o ",
"X X X + o X o o X X X   + s > + X X X X   X X + X X X   X X   + + o X X o o - h #   o X   + = X X X X X X X X X + s > + X   X o ",
"X X X X X X + + X o o o = ( l + X o + X   X X X X X X X X X X X   X X X X o o .   o X o +   X X X X X X X X X X + z l + + X X o ",
"X X   X X X o X o o X   + = =   X o X X X X X X X   + + X   X X   X X X X X o + o X X o     o X o + + X     X X   = = @ +   X o ",
"X o + o o + 4 & + o X X X o + X X X X X X X X X X   + + X   X X X X X o X   + + X X   = > +   X o + + X     X X X o X + +   o X ",
"  + + + . + K n + + X X o + + X X X     X X X X X X X X X X + X o o o o X   + @ + + + l ' >   + X X X X X X X X X o X   X X + + ",
"X o + o X + q 4 o o X X X + + X X o + +   X o X X X X X   X   + ; +   o X o + + o o X > h =   X X X X X X X   X X X X X X X + + ",
"X   X X X X . . o X X X X     X X + = +   X X o X X X X   X X = 0 @ X o X X X   X X o       X X X o X X X X     X X X X X X X X ",
"  + # + o + + + X X X X X X X X X X + + X X . . X X X X X X X + + + X X o X X X X X X o + X X     X X X X X X X X X X X X X X X ",
"  + = + o + + o X X X X X X X X X X   X X X   .   o X X X X X     X X X X X X X X X X X X X X     X X X X X X X X X X X X X X X "
};
