/* XPM */
static char *floor[] = {
/* columns rows colors chars-per-pixel */
"64 64 162 2 ",
"   c #070906",
".  c #0A0A07",
"X  c #0B0C0A",
"o  c #0F100F",
"O  c #10120F",
"+  c #0C0F11",
"@  c #0E1213",
"#  c #0D1419",
"$  c #0D181D",
"%  c #161816",
"&  c #181816",
"*  c #111618",
"=  c #14191B",
"-  c #1B1C1B",
";  c #1F211F",
":  c #21211F",
">  c #0E1B23",
",  c #0E1D2B",
"<  c #141C23",
"1  c #121F29",
"2  c #0F212D",
"3  c #162226",
"4  c #1F2224",
"5  c #14222B",
"6  c #1E252C",
"7  c #0F2334",
"8  c #132532",
"9  c #1B2632",
"0  c #1D2A34",
"q  c #12253C",
"w  c #13283B",
"e  c #1A2D3C",
"r  c #1B313C",
"t  c #232423",
"y  c #282827",
"u  c #25272A",
"i  c #272A2D",
"p  c #2C2D2C",
"a  c #30312E",
"s  c #252E37",
"d  c #2B2E30",
"f  c #2E3032",
"g  c #22303B",
"h  c #2A343D",
"j  c #333434",
"k  c #36373A",
"l  c #373939",
"z  c #3C3D3D",
"x  c #0F2E46",
"c  c #142D43",
"v  c #132E4C",
"b  c #133046",
"n  c #1D3343",
"m  c #14304C",
"M  c #1F364C",
"N  c #143653",
"B  c #193A57",
"V  c #183758",
"C  c #153B5C",
"Z  c #283645",
"A  c #2B3A46",
"S  c #223749",
"D  c #233B4B",
"F  c #2D3C49",
"G  c #3F3F40",
"H  c #223D53",
"J  c #153D61",
"K  c #2E404F",
"L  c #3E4144",
"P  c #254057",
"I  c #25435E",
"U  c #314554",
"Y  c #334A5A",
"T  c #1F4866",
"R  c #1A466B",
"E  c #1B4B73",
"W  c #254360",
"Q  c #2A4661",
"!  c #244867",
"~  c #2B4A65",
"^  c #22496D",
"/  c #2B4C6A",
"(  c #2E516F",
")  c #345167",
"_  c #34546C",
"`  c #3D5569",
"'  c #244E73",
"]  c #2B5376",
"[  c #255578",
"{  c #2E577E",
"}  c #2D5B7F",
"|  c #335776",
" . c #395872",
".. c #315A79",
"X. c #36617E",
"o. c #434443",
"O. c #4C4D4C",
"+. c #51514F",
"@. c #4E4F52",
"#. c #545454",
"$. c #575759",
"%. c #5B5A5A",
"&. c #465869",
"*. c #426376",
"=. c #4E6376",
"-. c #41627D",
";. c #49667F",
":. c #636463",
">. c #64676A",
",. c #6F7073",
"<. c #747474",
"1. c #727378",
"2. c #7B7D7D",
"3. c #2B5C83",
"4. c #325E85",
"5. c #3A6084",
"6. c #34628A",
"7. c #37698D",
"8. c #3D698E",
"9. c #3D6B91",
"0. c #3F7099",
"q. c #436581",
"w. c #4C6781",
"e. c #4D6C86",
"r. c #456F8E",
"t. c #4E6F8D",
"y. c #4C708B",
"u. c #437197",
"i. c #4F7491",
"p. c #44739A",
"a. c #4E769A",
"s. c #537494",
"d. c #54799A",
"f. c #607F97",
"g. c #487CA3",
"h. c #537FA0",
"j. c #67849B",
"k. c #5B85A4",
"l. c #5A87A8",
"z. c #5A88AB",
"x. c #6C8BA2",
"c. c #668BA9",
"v. c #6690AE",
"b. c #7897AF",
"n. c #648EB2",
"m. c #6A99B8",
"M. c #739AB6",
"N. c #799AB5",
"B. c #789DB8",
"V. c gray53",
"C. c #87878D",
"Z. c #8C8C8B",
"A. c #979797",
"S. c #A3A3A2",
"D. c gray66",
"F. c gray73",
"G. c #87A9C3",
"H. c #8AAEC6",
"J. c #90ACC4",
"K. c #8DB2C9",
"L. c #92B2C6",
"P. c #96BACA",
/* pixels */
"X X X X X % X X X % % X X X X X X X X n 6.8 . X X X X X X X X X X X X X X X X X X X X X X X X X X X X X X X X X X X X X X X X X ",
"X X X X X X X X X X X X X X X X X X X D p.g X X X X o % X X X X X X X X X X X % X X X X X X X X X - - X X X X X X o X X X X X X ",
"X X X X X X X X X X X X X X X X @ % * Y z.F % @ X X % % X X % X X X X X X X % % X X X X X X X X % d t X X X X X X % % X X X X X ",
"X X X X X X X X X X X X X X X @ P -.e.x.L.j.;./ 9 X X X X X X X X X X X X X X X X X X X X X X X X % O X X X X X X X X X X X X X ",
"X X X X t o.: X X X X X X X X @ P q.e.x.L.j.w._ 9 X X X X X X X X X X X X X X X X X X X X X X X X X X X X X X X X X X X X X X X ",
"X X % X o.S.o.X X X X X X X X X @ * * Y k.A % @ X X X X X X X X X X X X X X X X X X X X X X X X X - % % X X X X X X X X X % % X ",
"X X X X - z - X X X X X X X X X X X X S 8.0 X X X X X X X X X X X X X X X X X X X X X A ) = X X X % X X X X X X X X X X X X X X ",
"X X X X X X X X X X X o o X X X X X X e ] 5 X X X X X X X X X X X X X X X X X X X @ = *.h.0 @ X X X X X X X X % - O X X X X X X ",
"X X X X X X X X X X X X X X X X X X X # 1 @ X X X X X X X X X X X X X % X X X X X 6 q.b.J.s.U X X X X X X X X o.A.p X X X X X X ",
"X X X X X X X X X X X X X X X X X X X X X X X X X X X X X X X X X X X X X X X X X = U f.N.` g X X X X X X X X a :.t X X X X X X ",
"X X X X X X X X X X X % % X X X X X X X X X X X X X X X X X % % X X X X X X X X X X # _ r.< X X X X X X X X X X X X X X X X X X ",
"% o X X X X o X X X X X X X X X X @ 4 = X X X X X X X X X X X X X X X X X X o % X X X 3 0 @ X X X X X % X X X X X X X X X X X X ",
"% % X X X O % X X X X X X - % X X % u - X X X * @ X X X X X X X X X X X X X o % X X X X . X X X X X X % X X X X X X X X X X X X ",
"X X X X X X X X X X X X - #.O.o X X % X X X < / e X X X X X X X X X X X X X X X X X X X X X X X X X X X X X X X X X X X X X X X ",
"X X X X X X X X X X X - j <.:.t % X X X X X = ! e X X X X X X X X X X X X X X X X X X X X X X X X X X X X X X X # X X X X X X X ",
"X X X X X X X X X X & +.<.F.D.:.p X X X X X X @ @ X X X X X X X X X X X X X X X X X - % X X X X X X X X X X X = e @ X X X X X X ",
"X X O X X X X X X X % j #.A.V.o.- X X X X X X X X X X X p t X X X X X X X X X X X X % X X X X X X % % X X X X @ < + X X X X X X ",
"X X % X X X X X X X X X - %.O.% X X X X X X X X X X X % k f X X X X X - % X X X X X X X X X X X X % % X X X X X X X X X X X % % ",
"X X X X X X X X X X X X X ; - X X X X X X X X X X X X X % % X X X X p A.O.X X X X X X X X X X X X X X X X X X X X X X X X X X X ",
"X X X X X - O X X X X X X X X X X X X X X X X X X % X X X X X X X X t <.z X X X X X X X X o o X X X X X X X X X X X X X X X X X ",
"X X X X - o.t X X X X X X X X X X X X X X X X X % - % X X X X X X X X o X X X X X X X X X X X X X X X X X X X X % % % X X % X X ",
"X X X X % t % X X X X X X X X X X X X X X X X X X % X X X X X X X X X X X X X X X X X X X X X X X X X X X X X X X o X X X X X X ",
"% X X X X X X X X X X X X X X X X X X X % X X X X X X X X X X X X X X X X X X X X X X X X X X X X @ @ X X X X X X X X X X X X X ",
"X X X X X X X X X X X X X X X X X X X X X X X X X X X X X X X X X X X X X X X X X X X X X X X X $ v q X X X X X X X X X X X X X ",
"X X X X X X X X X X X * % X X X X X X X X X X X % t & X X X X X X X X X X X X X X X X X X X X X > J v + X X X X X X X X X X X X ",
"X X X X X X X X X X = / I % X X X X X X X X X X G C.O.X X X X X X X X X X X X X X X X X X X X X > J v X X X X X X % % X X X X X ",
"X X % X X X X X X X * H H % X X X % p - X X X X p $.j X X X X X X X X X X X X X X X X X X X @ 7 M 5.( w # X X X X o o X X X X X ",
". % t % X X X X X X X X o X X X X t Z.#.X X X X X X X X X X X X X X X X X % % X X X X X X + > J { c.s.R 8 @ X X X X X X X X X X ",
"X X % X X X X X X X X X X X X X X % o.p X X X X X X X X X X X > c $ X X X % X X X X X , m ~ ..u.k.G.M.a.| W m , X X X X % = X X ",
"X X X X X X X X X X X X X X X X X X X X X X X X X X X X X X X 1 B > X X X X X X X X X w R 4.0.z.M.P.H.n.p.4.R 7 X X X X % - X X ",
"X X X X X X X X X X X X X X X X X X X X X X X X X X X X X X X + $ X X X X X X X X X X # > 5 n [ 9.m.l.} M 5 > @ X X X X X X X X ",
"X X X X X X X + > + X X X X X X X X X X X X X X % t - X X X X X X X X X X X X X X X X X X X # x ! g.7.N > X X X X X X X X X X X ",
"X X X % o X X 2 J > X X X X X X X X & % X X X X p %.z X X X X X X X X X X X X X X X X X X X X X 8 3.T # X X X X X X X X X X X X ",
"X X X X X X X 8 ' 1 X X X X X X X X % X X X X X % a t X X X X X X X X X X X X X % % X X X X X X , E V + X X X X X X X X X X X X ",
"X X X X X X @ n 5.e @ X X X X X X X X X X X X X X . X X X X X X X X % t % X X X % % X X X X X X > C c X X X X X X X X X X % X X ",
"X X X X X = ~ i.N.y.~ = X X X X X X X X X X X X X X X X X X X X X . p 1.z X X X X X % X X X X X X $ @ X X X X X X X X X - t % X ",
"X X X X X = ~ i.B.t.Q = X X X X X X X X X @ = X X X X X X X X X X X p ,.l X X X X X % X X X X X X X X X X X X X X X X X = t % X ",
"X X % X X X % D u.S + X X X % - % X X X X e ~ = X X X X X X X X X X O - % X X X X X X X X X X X X X X X X X X X X X X X X X X X ",
"X X o X X X X e 3.e X X X X X = % X X X X 5 n # X X X X % o X X X X X X X X X X X X X X X X X X X o X X X X X X X h s X X X X X ",
"X X X X X X X , C > X X X X X X X X X X X X X X X X X X % % X X X X X X X X X X X X X X X X X X X % % X X X X X % =.&.@ X X X X ",
"X X X X X X X + > + X X X X X X X X X X X X X X X X X X X X X X X X X X X X X X X X X X X X X X X X X X X X X X X 6 4 X X X X X ",
"X X X t - X X X X X X X X X X X X X X X X X X X X o X X X X X X X X X X X X X X X X X % % X X X X X X X - - X X X X X X X X X X ",
"X X - >.O.X X X X X X X X X X X X % X X X X X X % - % X X X X X X X X - % X X X X X X 4 i % X X X X X X j L % X X X X X X X X X ",
"X X % o.j X X X X X X X X X X X X X X X X X X X X % O X X X X X X X X % X X X X X o - L @.- X X X X X X t p O X X X X X X X X X ",
"X X X X X X X X X X X X X % % X X X X X X X X X X X X X X X X X X X X X X X X X X % f >.2.t X X X X X X X X X X X X X X X X X X ",
"X X X X X X X X X X X X X X X X X X X X X X # c 2 X X X X X X X X X X X X X X X X X = j z % X X X X X X X X X X X X X X t o.- . ",
"X X X X X X X X o X X X X X X X X X X X X X > R c X X X X X X X X X X X @ < @ X X X X o % X X X X X X X X X X X X X X X y O.- X ",
"X X X X X X X % t % X X X X X X X X X X X X < 4.H X X X X X X X X X X X e ] 0 X X X X X X X X X X X X X X X % X X X X X o % X X ",
"X X X X X X X o - X X X X t ; X X X X < n Z Y k.-.e 5 , X X X X X X X X 5 H 1 X X X X X X X X X X $ # X X X X X X X X X X X X X ",
"X X X X X X X X X X X X % O.o.% X X X n 9.d.c.K.v.6.^ N # X X X X X X X X X X X X X X X X X X X @ c 8 X X X X X X X X X X X X X ",
"X X X X X X X X X X X X X : ; X X X X = 0 0 K h. .9 5 > X X X X X X X X X X X X X X X X X X X X X $ # X X X X X X X X X X X X X ",
"X X X X X X X X X X X X X X X X X X X X X X 3 5.H X X X X X X X X X X X X X X X X X X X X X X X X X X X X X X X X X X X X X X X ",
"X X X - % X X X X X X X X X X X X X % % X X > R b X X X X X X X X X X X X X X   X X X X X X . X X X X X X X X X X X X X X X X X ",
"X X X & % X X X X X X X X X X X X X % % X X @ c , X X X X X X X X X X X X X ; j % X X X X % % X X X X X X X X X X X X X X X X X ",
"X X X X X X X X X X X X X X X X X X X X X X X X X X X X X X X o % X X X X X o.2.t X X X X t p o X X X X X X X X X X X X X X X X ",
"X X X X X X X X X X X X % j p X X X X X X X X X X X X X X X X X % X X X X X t z % X X X X % - X X X X X X X X X O j p X X X X X ",
"X X X X X X o X X X X X - :.+.% X X X X X X X X X X X X X X X X X X X X X X X X X X X X X X X X X X X X X X X X % $.O.X X X X X ",
"X X X X X X . X X X X X X : - X X X X X X X X X X X X % X X X X X X X X X X X X X X X X . X X X X % o X X X X X X - - % o X X X ",
"X X X X X + 9 5 X X X X X X X X X X X X X X X X X X X o X X X X X X X X X X X X X X X - p % X X X O X X X X X X X X X % X X X X ",
"X X % X X % X.~ + X X X X % % X X X X X X X X X X X X X X X X X X X X X X X % % X X X O.Z.p . X X X X X X X X X X X X X X X X X ",
"X X X X X X r 9 X X X X X X X X X X % % X X X X X X X X X X X % 4 % X X X X X o X X X p o.- X X X X X X X X X X X X X X X X X X ",
"X X X X X X X . X X X X X X X X X X - % X X X X X X X X X X X - f % X X X X X X X X X X X X X X X X X X X X X X X X X X X X X X ",
"X % % X X X X X X X X X X X X X X X X X X X X X X X X X X X X X % X X X X X X X X X X X X X X X X X X X X X X X X X X X X X X X ",
"X % - X X o X X X X X X X X X X X X X X X X X X X X X X X X X X . X X X X X X X X X X X X X X X X X X X X X X X X X X X X X X X "
};
