/* XPM */
static char *player[] = {
/* columns rows colors chars-per-pixel */
"64 64 143 2 ",
"   c None",
".  c #8F052C",
"X  c #980424",
"o  c #8E0733",
"O  c #8F0836",
"+  c #930731",
"@  c #950837",
"#  c #B3104F",
"$  c #BD1255",
"%  c #C9145D",
"&  c #C91663",
"*  c #D11666",
"=  c #DB1762",
"-  c #D81867",
";  c #D1186A",
":  c #F41B6C",
">  c #EA1B72",
",  c #6C1A95",
"<  c #6E1C9D",
"1  c #701D9D",
"2  c #6E1DA3",
"3  c #6F1EA8",
"4  c #701EA5",
"5  c #711FAB",
"6  c #7120AE",
"7  c #7421B5",
"8  c #7523BC",
"9  c #7924BC",
"0  c #7725C3",
"q  c #7925C4",
"w  c #7725C9",
"e  c #7A27CB",
"r  c #7C28CE",
"t  c #7C27D0",
"y  c #7C29D3",
"u  c #7E2ADB",
"i  c #7E2CE2",
"p  c #9520A2",
"a  c #8028C6",
"s  c #8329CC",
"d  c #8F2DCD",
"f  c #802BD6",
"g  c #812BDD",
"h  c #932FD2",
"j  c #9530D5",
"k  c #9430DB",
"l  c #9832DB",
"z  c #B829C4",
"x  c #BF2BC9",
"c  c #812DE5",
"v  c #8F2FE7",
"b  c #832EEB",
"n  c #932FE5",
"m  c #8530EE",
"M  c #8932EE",
"N  c #9C35E5",
"B  c #9231EB",
"V  c #9B35EB",
"C  c #842FF2",
"Z  c #8531F4",
"A  c #8932F5",
"S  c #8732FA",
"D  c #8B35FE",
"F  c #8739FF",
"G  c #8E39FF",
"H  c #9C36F0",
"J  c #9437FE",
"K  c #9837FA",
"L  c #923CFF",
"P  c #993DFF",
"I  c #A437ED",
"U  c #A438ED",
"Y  c #A53AF4",
"T  c #A93BF7",
"R  c #A23DFE",
"E  c #AA3CFD",
"W  c #B03FFF",
"Q  c #C32BCA",
"!  c #9640FF",
"~  c #9640FF",
"^  c #9940FF",
"/  c #9B43FF",
"(  c #9F44FF",
")  c #9B42FF",
"_  c #A040FF",
"`  c #A740FF",
"'  c #A045FF",
"]  c #A147FF",
"[  c #A545FF",
"{  c #A447FF",
"}  c #A646FF",
"|  c #A246FF",
" . c #A843FF",
".. c #AA44FF",
"X. c #AC47FF",
"o. c #A549FF",
"O. c #A649FF",
"+. c #A549FF",
"@. c #A84BFF",
"#. c #AB4BFF",
"$. c #AD4BFF",
"%. c #AB4CFF",
"&. c #AC4CFF",
"*. c #AE4DFF",
"=. c #AC4DFF",
"-. c #B241FF",
";. c #B043FF",
":. c #B347FF",
">. c #B247FF",
",. c #B446FF",
"<. c #B447FF",
"1. c #B647FF",
"2. c #B248FF",
"3. c #B24BFF",
"4. c #B34CFF",
"5. c #B14FFF",
"6. c #B24FFF",
"7. c #B44FFF",
"8. c #B74EFF",
"9. c #B24FFF",
"0. c #BA4FFF",
"q. c #BD4FFF",
"w. c #B450FF",
"e. c #B750FF",
"r. c #B650FF",
"t. c #B450FF",
"y. c #B850FF",
"u. c #BA50FF",
"i. c #BC50FF",
"p. c #BF50FF",
"a. c #BE50FF",
"s. c #BB50FF",
"d. c #C250FF",
"f. c #C350FF",
"g. c #C550FF",
"h. c #C950FF",
"j. c #CB50FF",
"k. c #CC50FF",
"l. c #CE50FF",
"z. c #CF50FF",
"x. c #D250FF",
"c. c #D550FF",
"v. c #DC50FF",
/* pixels */
"                                                                                                                                ",
"                                                                                                                                ",
"                                                                                                                                ",
"                                                                                                                                ",
"                                                                                                                                ",
"                                                                                                                                ",
"                                                                                                                                ",
"                                                5 e c c b b D G D G L D c b u 8                                                 ",
"                                              8 b G G L L L / / ] ] ] ] %.%.u.0.J                                               ",
"                                              b G L L L L L / / ] O.O.%.w.u.z.c.2.0.                                            ",
"                                        5 Z ! L L L L L L L L L L ] ] O.O.2.g.c.c.v.z.P                                         ",
"                                      6 S G L L L L L L L P P P / / O.%.%.%.w.g.u.z.z.z.P u                                     ",
"                                      y D L L L L L y u u u u u g g c m M M M L u.g.g.g.u. .                                    ",
"                                      Z D L G D D Z 5 6 7 9 9 9 q q q q q q 9 a 2.2.w.u.z.g.                                    ",
"                                  < e G G L G 4 < 7 A A L 2.2.2.-.-.2.-.-.-.-.-.j d T u.w.] M                                   ",
"                                  e b G L Z 7 0 5                                 l N ] 2.w.]                                   ",
"                                  c D G Z q < 0                                     N l  .w.2.                                  ",
"                                  u S D < < 7                             E -.T       N    .%.                                  ",
"                                < r e 4 8 7                                 T W E       j R %.g                                 ",
"                                < e q < 0 9                                     T T     j R %.c                                 ",
"                                < q q 1 0 8                                     T E I   j R %.g                                 ",
"                                < q 0 < 0 8                                     T E I   j R O.g                                 ",
"                                < q 0 < 0 8                                       T I   j P P y                                 ",
"                                < q 0 < 8 8                                         I   j J L y                                 ",
"                                < q 0 < 8 8                                             h J L y                                 ",
"                                  r q , 0 8                                             h J L                                   ",
"                                  y e 6 7 6                                             j J L                                   ",
"                                  e u y < 7 q                                         V   P L                                   ",
"                                  < 8 y y 7 , e                                   l l   ] L q                                   ",
"                                    5 8 y y 7 6 < < q q 0 0 q q q q q q r V T T E N V R D g                                     ",
"                                      < e g u < 2 5 q q q q q q q q q q r H T R E R   P g 6                                     ",
"                                            b y y e                               R P e                                         ",
"                                        7     4 e r q q q q q q q q q q e e r r u                                               ",
"                                        8 q   , 7 e q q q q q q q q q q e e e e y                                               ",
"                                      u q y t                                     b D ]                                         ",
"                                  , 6 y e i S D r 6 7 7 7 7 7 7 7 7 7 7 8 r y g L D G ] O.]                                     ",
"                                  7 e y u Z D D Z u c u c Z Z Z Z Z Z Z Z S D D b D L P O.]                                     ",
"                                  y u u Z D D Z S D D D G L L L L J J P P P P G 2 c G D / ]                                     ",
"                                2 0 u S S D S 6 0 g D G L L L L B O $ * ; > x F 9 q c G L L D                                   ",
"                                2 0 u D D b u 7 0 g D L L L L L B . $ = - : Q F   e b L L L D                                   ",
"                                4 7 y b Z y 7 6 e c D D L L L L B o # % & = z G   y c D D D D                                   ",
"                                < < < 2 0 8 5     b D D D L L L v . + + @ X p G     s s e y 0                                   ",
"                                u c b c 6 2   7 e c D D D D L L L n n n B n J L     g D ] 2.%.                                  ",
"                                m D D L b f   6 0 e u c c y b m Z Z D D S D D D   g A / %.u.u.                                  ",
"                                b Z G / ] /   3 3 2 < 8 8 < < < < , y y < e u y   Z L O.O.%.2.                                  ",
"                                Z D D D ] P   0 u b b S D S G L G G L L L L G b   A G D / %.w.                                  ",
"                                c Z D b P     e b Z Z S D D L L / ! / L D / L D     D D L /                                     ",
"                                  c Z c       w c Z Z b Z D D D L L L D b L / P       D D Z                                     ",
"                                              0 i S / Z u c b b b b u m L L P L D                                               ",
"                                              0 D ! / L G C         r S / / / L D                                               ",
"                                              8 Z L L L G b         0 c D G L G b                                               ",
"                                              < 7 0 0 0 0 0         < 5 3 e y e 8                                               ",
"                                              8 y c D A D Z         0 u Z Z Z Z c                                               ",
"                                              y b D D D D D         e b D D D G D A                                             ",
"                                            b m D G G G G D         e b D D L / / L m                                           ",
"                                            Z / ] O.O.%.O./         e b D / O.%.%.%.O.                                          ",
"                                            S L / / / / / P         e C D L / ] ] ] /                                           ",
"                                            c A D D D D D D         0 g A D D D D L D                                           ",
"                                                                                                                                ",
"                                                                                                                                ",
"                                                                                                                                ",
"                                                                                                                                ",
"                                                                                                                                ",
"                                                                                                                                "
};
