/* XPM */
static char *wall[] = {
/* columns rows colors chars-per-pixel */
"64 64 4 1 ",
"  c None",
". c #283C50",
"X c #3C648C",
"o c #00FFB4",
/* pixels */
"                                                                ",
"                                                                ",
"                                                                ",
"                                                                ",
"                                                                ",
"                                                                ",
"                                                                ",
"                                                                ",
"                            .........                           ",
"                        .................                       ",
"                      .....................                     ",
"                    .........................                   ",
"                   ...........................                  ",
"                 ...............................                ",
"                .................................               ",
"               ...................................              ",
"              ...............XXXXXXX...............             ",
"             .............XXXXXXXXXXXXX.............            ",
"             ...........XXXXXXXXXXXXXXXXX...........            ",
"            ...........XXXXXXXXXXXXXXXXXXX...........           ",
"           ..........XXXXXXXXXXXXXXXXXXXXXXX..........          ",
"           .........XXXXXXXXXXXXXXXXXXXXXXXXX.........          ",
"          ..........XXXXXXXXXXXXXXXXXXXXXXXXX..........         ",
"          .........XXXXXXXXXXXXXXXXXXXXXXXXXXX.........         ",
"         .........XXXXXXXXXXXXoooooXXXXXXXXXXXX.........        ",
"         .........XXXXXXXXXXoooooooooXXXXXXXXXX.........        ",
"         ........XXXXXXXXXXoooooooooooXXXXXXXXXX........        ",
"         ........XXXXXXXXXoooooooooooooXXXXXXXXX........        ",
"        .........XXXXXXXXoooooooooooooooXXXXXXXX.........       ",
"        ........XXXXXXXXXoooooooooooooooXXXXXXXXX........       ",
"        ........XXXXXXXXoooooooooooooooooXXXXXXXX........       ",
"        ........XXXXXXXXoooooooooooooooooXXXXXXXX........       ",
"        ........XXXXXXXXoooooooooooooooooXXXXXXXX........       ",
"        ........XXXXXXXXoooooooooooooooooXXXXXXXX........       ",
"        ........XXXXXXXXoooooooooooooooooXXXXXXXX........       ",
"        ........XXXXXXXXXoooooooooooooooXXXXXXXXX........       ",
"        .........XXXXXXXXoooooooooooooooXXXXXXXX.........       ",
"         ........XXXXXXXXXoooooooooooooXXXXXXXXX........        ",
"         ........XXXXXXXXXXoooooooooooXXXXXXXXXX........        ",
"         .........XXXXXXXXXXoooooooooXXXXXXXXXX.........        ",
"         .........XXXXXXXXXXXXoooooXXXXXXXXXXXX.........        ",
"          .........XXXXXXXXXXXXXXXXXXXXXXXXXXX.........         ",
"          ..........XXXXXXXXXXXXXXXXXXXXXXXXX..........         ",
"           .........XXXXXXXXXXXXXXXXXXXXXXXXX.........          ",
"           ..........XXXXXXXXXXXXXXXXXXXXXXX..........          ",
"            ...........XXXXXXXXXXXXXXXXXXX...........           ",
"             ...........XXXXXXXXXXXXXXXXX...........            ",
"             .............XXXXXXXXXXXXX.............            ",
"              ...............XXXXXXX...............             ",
"               ...................................              ",
"                .................................               ",
"                 ...............................                ",
"                   ...........................                  ",
"                    .........................                   ",
"                      .....................                     ",
"                        .................                       ",
"                            .........                           ",
"                                                                ",
"                                                                ",
"                                                                ",
"                                                                ",
"                                                                ",
"                                                                ",
"                                                                "
};
